<svg xmlns="http://www.w3.org/2000/svg" width="430" height="430" style="width:100%;height:100%;transform:translate3d(0,0,0);content-visibility:visible" viewBox="0 0 430 430"><defs><clipPath id="c"><path d="M0 0h430v430H0z"/></clipPath><clipPath id="d"><path d="M0 0h430v430H0z"/></clipPath><filter id="a" width="100%" height="100%" x="0%" y="0%" filterUnits="objectBoundingBox"><feComponentTransfer in="SourceGraphic"><feFuncA tableValues="1.0 0.0" type="table"/></feComponentTransfer></filter><path id="b" fill="#3A3347" d="M-57.091 46.053c39.08-1.63 70.28-25.94 84.83-60.1 32.787 23.36 31.026 43.821 36.956 63.531 14.38-19.646 11.561-58.746 1.497-74.171-8.376-12.838-23.666-17-23.666-17-21.792-5.284-44.082 2.543-55.135 7.502-4.592 2.06-9.924 1.553-14.02-1.37l-15.879-11.331c-5.933-4.428-14.349-3.052-18.564 3.033-5.394 7.786-10.722 19.446-12.819 33.416-4.935 32.876 16.907 56.378 16.907 56.378" style="display:block" transform="translate(216.141 104.687)"/><mask id="e" mask-type="alpha"><g filter="url(#a)"><path fill="#fff" d="M0 0h430v430H0z" opacity="0"/><use xmlns:ns1="http://www.w3.org/1999/xlink" ns1:href="#b"/></g></mask></defs><g clip-path="url(#c)"><g clip-path="url(#d)" style="display:block"><g style="display:block"><path fill="none" d="M248.88 241.69h7.62c45.84 0 83 37.16 83 83v27.76c0 7.62-5.71 14.03-13.28 14.9l-29.04 3.36a85.26 85.26 0 0 0-23.07 6.03c-18.91 7.91-39 11.88-59.11 11.92h-.3c-20.1 0-40.2-3.93-59.12-11.8l-.2-.08c-7.69-3.2-15.79-5.3-24.07-6.26l-27.53-3.17c-7.57-.87-13.28-7.28-13.28-14.9v-27.76c0-45.84 37.16-83 83-83h7.63" class="primary"/><path fill="#3A3347" d="M248.88 241.69h7.62c45.84 0 83 37.16 83 83v27.76c0 7.62-5.71 14.03-13.28 14.9l-29.04 3.36a85.26 85.26 0 0 0-23.07 6.03c-18.91 7.91-39 11.88-59.11 11.92h-.3c-20.1 0-40.2-3.93-59.12-11.8l-.2-.08c-7.69-3.2-15.79-5.3-24.07-6.26l-27.53-3.17c-7.57-.87-13.28-7.28-13.28-14.9v-27.76c0-45.84 37.16-83 83-83h7.63" class="primary"/></g><g opacity=".5" style="mix-blend-mode:multiply;display:block"><path fill="#3A3347" d="M45.67-56.73C17.51-49.61-9.25-31.02-16.97-17.92c-9.48 16.09-7.43 81.21-7.43 81.21l-7.99-.92c-7.57-.87-13.28-7.28-13.28-14.9V19.71c0-34.31 20.81-63.75 50.5-76.4 9.98-4.25 20.97-6.6 32.5-6.6h7.63c.01 1.27.09 2.52.25 3.75.03.31.07.61.12.91a27.562 27.562 0 0 0 .34 1.9z" class="primary" opacity="1" style="mix-blend-mode:multiply" transform="translate(136.138 305.549)"/></g><g style="display:block"><path fill="#2EA089" d="M245.535 355.716h-59.364c-2.057 0-3.504-2.023-2.84-3.969l28.721-84.886c3.79-3.91 6.265-1.89 6.275-1.89l30.047 86.776c.664 1.946-.783 3.969-2.839 3.969z" class="quaternary"/><g fill="#3A3347"><path d="m316.938 267.272-36.07 47.04c-6.43 8.38-18.811 9.08-26.121 1.46-6.91-7.2-38.479-39.76-38.479-39.76.51-.24-7.52-33.88 33.86-33.56h7.629c23.18 0 44.141 9.5 59.181 24.82zm-101.746 8.24c-3.07 3.12-30.239 31.18-38.479 39.76-7.32 7.62-19.69 6.92-26.12-1.46l-36.08-47.05c15.05-15.31 36.009-24.81 59.179-24.81h7.641c42.915 4.805 33.859 33.56 33.859 33.56z" class="primary"/><path fill-opacity=".5" d="m152.333-13.231-36.07 47.04c-6.43 8.38-18.811 9.08-26.121 1.46-6.91-7.2-38.479-39.76-38.479-39.76.51-.24-7.52-33.88 33.86-33.56h7.629c23.18 0 44.141 9.5 59.181 24.82zM50.587-4.991c-3.07 3.12-30.239 31.18-38.479 39.76-7.32 7.62-19.69 6.92-26.12-1.46l-36.08-47.05c15.05-15.31 36.009-24.81 59.179-24.81h7.641c42.915 4.805 33.859 33.56 33.859 33.56z" class="primary" style="mix-blend-mode:multiply" transform="translate(164.605 280.503)"/></g></g><path fill="#F3C3BA" d="m33.87 7.845-.01 18.315c0 18.63-33.9 34.495-33.9 34.495S-33.89 44.79-33.89 26.16l.01-18.305" class="secondary" style="display:block" transform="translate(215 215)"/><g opacity=".5" style="mix-blend-mode:multiply;display:block"><path fill="#F3C3BA" d="M33.875-12.905s-13.5 21.7-47.74 22.93c-3.935.142-7.928.586-11.923 1.291-2.462.434-4.925.967-7.377 1.589-.09-.43-.18-.87-.25-1.31-.03-.19-.06-.39-.09-.59-.05-.3-.09-.6-.12-.91-.16-1.23-.24-2.48-.25-3.75l.098-47.49c9.63 6.66 55.31-6.2 67.87-6.2-.315 9.463-.066 19.213-.218 34.44z" class="secondary" opacity="1" style="mix-blend-mode:multiply" transform="translate(214.973 235.914)"/></g><g style="display:block"><path fill="none" d="m234 63 42.898 24.868-2.324 87.595C273.458 207.558 247.115 233 215 233c-32.115 0-58.458-25.442-59.574-57.537l-1.07-40.125" class="primary"/><path fill="#F3C3BA" d="m234 63 42.898 24.868-2.324 87.595C273.458 207.558 247.115 233 215 233c-32.115 0-58.458-25.442-59.574-57.537l-1.07-40.125" class="secondary"/></g><path fill="#AD6836" d="M-57.091 46.053c39.08-1.63 70.28-25.94 84.83-60.1 32.787 23.36 31.026 43.821 36.956 63.531 14.38-19.646 11.561-58.746 1.497-74.171-8.376-12.838-23.666-17-23.666-17-21.792-5.284-44.082 2.543-55.135 7.502-4.592 2.06-9.924 1.553-14.02-1.37l-15.879-11.331c-5.933-4.428-14.349-3.052-18.564 3.033-5.394 7.786-10.722 19.446-12.819 33.416-4.935 32.876 16.907 56.378 16.907 56.378" class="tertiary" style="display:block" transform="translate(211.141 89.687)"/><g mask="url(#e)" opacity=".5" style="mix-blend-mode:multiply;display:block"><path fill="#AD6836" d="M154.05 135.74c39.08-1.63 70.28-25.94 84.83-60.1 32.787 23.36 31.026 43.821 36.956 63.531 14.38-19.646 11.561-58.746 1.497-74.171-8.376-12.838-23.666-17-23.666-17-21.792-5.284-44.082 2.543-55.135 7.502-4.592 2.06-9.924 1.553-14.02-1.37l-15.879-11.331c-5.933-4.428-14.349-3.052-18.564 3.033-5.394 7.786-10.722 19.446-12.819 33.416-4.935 32.876 16.907 56.378 16.907 56.378" class="tertiary" opacity="1"/></g></g></g></svg>